<svg width="32" height="32" fill="none" xmlns="http://www.w3.org/2000/svg"><path fill-rule="evenodd" clip-rule="evenodd" d="M0 16C0 7.163 7.163 0 16 0s16 7.163 16 16-7.163 16-16 16S0 24.837 0 16z" fill="#FF3B3B"/><path fill-rule="evenodd" clip-rule="evenodd" d="M17.268 14.358v-.427h1.287v6.006h-.736a.549.549 0 01-.55-.544h-.001a3.14 3.14 0 01-1.851.601 3.129 3.129 0 01-3.139-3.118 3.129 3.129 0 013.139-3.118 3.14 3.14 0 011.85.6h.001zM11.945 12v.195c0 .363-.05.66-.287 1.007l-.028.033a7.36 7.36 0 00-.232.27l-4.13 5.155h4.677v.73a.55.55 0 01-.551.547h-6.06v-.344c0-.421.105-.61.238-.805l4.404-5.42H5.517V12h6.428zm8.17 7.937a.458.458 0 01-.458-.455V12h1.377v7.937h-.918zm4.992-6.217c1.745 0 3.16 1.407 3.16 3.14a3.15 3.15 0 01-3.16 3.14 3.15 3.15 0 01-3.16-3.14c0-1.733 1.415-3.14 3.16-3.14zm-9.69 4.99a1.84 1.84 0 001.846-1.834 1.84 1.84 0 00-1.846-1.833 1.84 1.84 0 00-1.847 1.833 1.84 1.84 0 001.847 1.834zm9.69-.003a1.854 1.854 0 001.859-1.848c0-1.02-.833-1.846-1.859-1.846a1.852 1.852 0 00-1.859 1.846c0 1.021.831 1.848 1.86 1.848z" fill="#fff"/></svg>