<svg width="32" height="32" fill="none" xmlns="http://www.w3.org/2000/svg"><path fill-rule="evenodd" clip-rule="evenodd" d="M16 0C6.986 0 0 6.603 0 15.52 0 20.186 1.912 24.216 5.025 27c.261.236.419.56.432.912l.087 2.846A1.282 1.282 0 007.34 31.89l3.174-1.4c.27-.12.57-.142.853-.065A17.4 17.4 0 0016 31.04c9.014 0 16-6.603 16-15.52S25.014 0 16 0z" fill="#FF3B3B"/><path fill-rule="evenodd" clip-rule="evenodd" d="M6.393 20.218l4.7-7.445a2.405 2.405 0 013.471-.64l3.738 2.8a.962.962 0 001.156-.003l5.048-3.826c.673-.511 1.555.296 1.101 1.01l-4.697 7.442a2.405 2.405 0 01-3.47.64l-3.739-2.8a.962.962 0 00-1.156.003l-5.051 3.829c-.673.51-1.555-.296-1.101-1.01z" fill="#fff"/></svg>