<svg width="300" height="150" fill="none" xmlns="http://www.w3.org/2000/svg"><path opacity=".18" d="M300 0H0v150h300V0z" fill="#5A77AD"/><rect x="25" y="36" width="71" height="82" rx="4" fill="#fff"/><rect x="25.5" y="36.5" width="70" height="81" rx="3.5" stroke="#7D869C" stroke-opacity=".5"/><rect x="33" y="77" width="55" height="6.271" rx="2" fill="#7D869C" fill-opacity=".5"/><rect x="45.019" y="86.406" width="30.962" height="3.135" rx="1.568" fill="#D3DAE6"/><rect x="39.728" y="92.677" width="41.544" height="3.135" rx="1.568" fill="#D3DAE6"/><rect x="42.014" y="98.948" width="36.971" height="3.135" rx="1.568" fill="#D3DAE6"/><rect x="51.812" y="105.219" width="17.375" height="3.135" rx="1.568" fill="#D3DAE6"/><path d="M26 40a3 3 0 013-3h63a3 3 0 013 3v28H26V40z" fill="#07C"/><rect x="114" y="36" width="71" height="82" rx="4" fill="#fff"/><rect x="114.5" y="36.5" width="70" height="81" rx="3.5" stroke="#7D869C" stroke-opacity=".5"/><rect x="122" y="77" width="55" height="6.271" rx="2" fill="#7D869C" fill-opacity=".5"/><rect x="134.019" y="86.406" width="30.962" height="3.135" rx="1.568" fill="#D3DAE6"/><rect x="128.728" y="92.677" width="41.544" height="3.135" rx="1.568" fill="#D3DAE6"/><rect x="131.014" y="98.948" width="36.971" height="3.135" rx="1.568" fill="#D3DAE6"/><rect x="140.812" y="105.219" width="17.375" height="3.135" rx="1.568" fill="#D3DAE6"/><path d="M115 40a3 3 0 013-3h63a3 3 0 013 3v28h-69V40z" fill="#00BFB3"/><rect x="203" y="36" width="71" height="82" rx="4" fill="#fff"/><rect x="203.5" y="36.5" width="70" height="81" rx="3.5" stroke="#7D869C" stroke-opacity=".5"/><rect x="211" y="77" width="55" height="6.271" rx="2" fill="#7D869C" fill-opacity=".5"/><rect x="223.019" y="86.406" width="30.962" height="3.135" rx="1.568" fill="#D3DAE6"/><rect x="217.728" y="92.677" width="41.544" height="3.135" rx="1.568" fill="#D3DAE6"/><rect x="220.014" y="98.948" width="36.971" height="3.135" rx="1.568" fill="#D3DAE6"/><rect x="229.812" y="105.219" width="17.375" height="3.135" rx="1.568" fill="#D3DAE6"/><path d="M204 40a3 3 0 013-3h63a3 3 0 013 3v28h-69V40z" fill="#F04E98"/></svg>